<svg xmlns="http://www.w3.org/2000/svg" viewBox="0 0 600 160" width="600" height="160" font-family="sans-serif" font-size="14"><rect x="0" y="0" width="600" height="160" fill="#ffffff"/><text x="300" y="20.666666666666668" text-anchor="middle" font-weight="bold" fill="#111111">ランニング記録</text><rect x="0" y="32" width="600" height="28" fill="#f0f0f0"/><text x="6" y="50.666666666666664" font-weight="bold" fill="#111111">日付</text><text x="156" y="50.666666666666664" font-weight="bold" fill="#111111">距離</text><text x="306" y="50.666666666666664" font-weight="bold" fill="#111111">タイム</text><text x="456" y="50.666666666666664" font-weight="bold" fill="#111111">ペース</text><text x="6" y="114.66666666666667" text-anchor="start" fill="#111111">2026-10-03</text><text x="156" y="114.66666666666667" text-anchor="start" fill="#111111">7km</text><text x="306" y="114.66666666666667" text-anchor="start" fill="#111111">41:04</text><text x="456" y="114.66666666666667" text-anchor="start" fill="#111111">5:52/km</text><rect x="0" y="32" width="600" height="128" fill="none" stroke="#333333"/><line x1="0" y1="60" x2="600" y2="60" stroke="#cccccc"/><line x1="0" y1="160" x2="600" y2="160" stroke="#cccccc"/><line x1="0" y1="32" x2="600" y2="32" stroke="#333333"/><line x1="0" y1="32" x2="0" y2="160" stroke="#cccccc"/><line x1="150" y1="32" x2="150" y2="160" stroke="#cccccc"/><line x1="300" y1="32" x2="300" y2="160" stroke="#cccccc"/><line x1="450" y1="32" x2="450" y2="160" stroke="#cccccc"/><line x1="600" y1="32" x2="600" y2="160" stroke="#cccccc"/></svg>